# xmcd
#
# Track frame offsets: 
#        150
#        13411
#        27524
#        40450
#        54050
#        65588
#        78758
#        93127
#        105714
#        117804
#        132087
#        145665
#        157109
#        168838
#        181449
#        193683
#        206441
#        218842
#        232535
#        245040
#        257132
#        270619
#        282907
#        296054
#        309361
#        322599
#        332156
#
# Disc length: 4567 seconds
#
# Revision: 0
# Processed by: cddbd v1.5.2PL0 Copyright (c) Steve Scherf et al.
# Submitted via: ExactAudioCopyFreeDBPlugin 1.0
#
DISCID=7b11d51b
DTITLE=Judy Canova - Time For Judy Canova - The Rare Recordings 1928-1
DTITLE=962
DYEAR=2014
DGENRE=Old Country
TTITLE0=The Frog Went A-Courtin'
TTITLE1=Hannah My Love
TTITLE2=Pore Little Thing Cried Mammy
TTITLE3=Smarty Pants
TTITLE4=St. Louis Blues
TTITLE5=Down The Alley And Over The Fence
TTITLE6=Time For Jookin'
TTITLE7=Is It True?
TTITLE8=Some One
TTITLE9=Goodnight Soldier
TTITLE10=A Tiny Little Voice
TTITLE11=Yoy Don't Have To Say You're Sorry
TTITLE12=Stars And Stripes On Owo Jima
TTITLE13=You Stole My Heart
TTITLE14=It Coundn't Be True
TTITLE15=My Fickle Eye
TTITLE16=Apple On A Stick
TTITLE17=Go To Sleepy, Little Baby
TTITLE18=No Vacancy
TTITLE19=I Ain't Got Nobody
TTITLE20=Twnety Five Chickens, Thrity Five Cows
TTITLE21=Never Trust A Man
TTITLE22=No Letter Today
TTITLE23=Bananas Ain't Got No Bonies
TTITLE24=Out On The Plains
TTITLE25=Fiddle Around
TTITLE26=Mr. Heartache And Mr. Blue
EXTD=
EXTT0=
EXTT1=
EXTT2=
EXTT3=
EXTT4=
EXTT5=
EXTT6=
EXTT7=
EXTT8=
EXTT9=
EXTT10=
EXTT11=
EXTT12=
EXTT13=
EXTT14=
EXTT15=
EXTT16=
EXTT17=
EXTT18=
EXTT19=
EXTT20=
EXTT21=
EXTT22=
EXTT23=
EXTT24=
EXTT25=
EXTT26=
PLAYORDER=
